<?xml version="1.0" encoding="UTF-8" standalone="no"?>
<!-- Generator: Adobe Illustrator 13.0.0, SVG Export Plug-In . SVG Version: 6.00 Build 14948)  -->

<svg
   xmlns:dc="http://purl.org/dc/elements/1.1/"
   xmlns:cc="http://creativecommons.org/ns#"
   xmlns:rdf="http://www.w3.org/1999/02/22-rdf-syntax-ns#"
   xmlns:svg="http://www.w3.org/2000/svg"
   xmlns="http://www.w3.org/2000/svg"
   xmlns:sodipodi="http://sodipodi.sourceforge.net/DTD/sodipodi-0.dtd"
   xmlns:inkscape="http://www.inkscape.org/namespaces/inkscape"
   version="1.1"
   x="0px"
   y="0px"
   width="548"
   height="120"
   viewBox="0 0 548.00001 120"
   enable-background="new 0 0 373.831 120.104"
   xml:space="preserve"
   id="svg2"
   inkscape:version="0.91 r13725"
   sodipodi:docname="love3d-logo.svg"
   inkscape:export-filename="D:\Dropbox\Workspace\Inkscape\love3d-logo.png"
   inkscape:export-xdpi="90"
   inkscape:export-ydpi="90"><metadata
     id="metadata59"><rdf:RDF><cc:Work
         rdf:about=""><dc:format>image/svg+xml</dc:format><dc:type
           rdf:resource="http://purl.org/dc/dcmitype/StillImage" /><dc:title /></cc:Work></rdf:RDF></metadata><defs
     id="defs57" /><sodipodi:namedview
     pagecolor="#ffffff"
     bordercolor="#666666"
     borderopacity="1"
     objecttolerance="10"
     gridtolerance="10"
     guidetolerance="10"
     inkscape:pageopacity="0"
     inkscape:pageshadow="2"
     inkscape:window-width="1920"
     inkscape:window-height="1017"
     id="namedview55"
     showgrid="false"
     inkscape:zoom="6.8052144"
     inkscape:cx="58.301501"
     inkscape:cy="57.39178"
     inkscape:window-x="-8"
     inkscape:window-y="435"
     inkscape:window-maximized="1"
     inkscape:current-layer="svg2"
     showguides="false"><inkscape:grid
       type="xygrid"
       id="grid8181" /></sodipodi:namedview><g
     id="umlaut"><circle
       cx="114.279"
       cy="10.231004"
       r="10"
       id="circle6" /><circle
       cx="139.612"
       cy="9.8960037"
       r="10"
       id="circle8" /></g><g
     id="paths"
     style="display:none"><path
       d="M 10.822,29.120004 C -9.032,84.810004 23.579,125.742 72.412,112.818"
       id="path46"
       inkscape:connector-curvature="0"
       style="fill:none;fill-opacity:1;stroke:#000000;stroke-width:10;stroke-linecap:round;stroke-linejoin:round;stroke-miterlimit:4;stroke-dasharray:none;stroke-opacity:1" /><path
       d="m 126.419,29.802004 c -55.287,0 -55.475,85.040996 -0.353,85.040996 55.04,0 55.854,-85.040996 0.353,-85.040996"
       id="path17"
       inkscape:connector-curvature="0"
       style="fill:none;stroke:#000000;stroke-width:10;stroke-linecap:round;stroke-linejoin:round;stroke-miterlimit:4;stroke-dasharray:none;stroke-opacity:1" /><path
       d="m 178.397,29.802004 c 48.716,110.467996 51.349,116.264996 104.041,0"
       id="path25"
       inkscape:connector-curvature="0"
       style="fill:none;stroke:#000000;stroke-width:10;stroke-linecap:round;stroke-linejoin:round;stroke-miterlimit:4;stroke-dasharray:none;stroke-opacity:1" /><path
       d="m 332.958,87.151004 c 57.148,-12.938 36.661,-53.914 3.234,-57.148 -33.427,-3.234 -51.756,33.427 -40.974,59.305 C 306,115.187 327.567,116.266 346.974,114.109"
       id="path36"
       inkscape:connector-curvature="0"
       style="fill:none;stroke:#000000;stroke-width:10;stroke-linecap:round;stroke-linejoin:round;stroke-miterlimit:4;stroke-dasharray:none;stroke-opacity:1" /><path
       sodipodi:nodetypes="cscsc"
       inkscape:connector-curvature="0"
       id="path8163"
       d="m 389.85949,41.424304 c 17.64389,-18.850209 54.43257,-13.631102 57.41237,6.490893 2.69004,18.165305 -14.94079,21.82847 -22.38545,22.442776 18.38827,0.630493 26.37931,12.182452 24.58796,25.313704 -3.25721,23.876523 -42.71325,22.258093 -59.32213,12.432903"
       style="fill:none;fill-rule:evenodd;stroke:#000000;stroke-width:10;stroke-linecap:round;stroke-linejoin:round;stroke-miterlimit:4;stroke-dasharray:none;stroke-opacity:1" /><path
       sodipodi:nodetypes="csssc"
       inkscape:connector-curvature="0"
       id="path8198"
       d="m 476.64747,32.377711 c -7.90717,6.895 -6.9393,71.637149 -0.0125,78.985909 7.0282,7.45631 68.21416,6.7093 66.3093,-39.326637 -1.80792,-43.692898 -59.84285,-45.287102 -66.29682,-39.659272 z"
       style="fill:none;fill-rule:evenodd;stroke:#000000;stroke-width:10;stroke-linecap:round;stroke-linejoin:round;stroke-miterlimit:4;stroke-dasharray:none;stroke-opacity:1" /></g><g
     transform="translate(0.01952243,0.04837297)"
     id="strokes"><path
       style="color:#000000;font-style:normal;font-variant:normal;font-weight:normal;font-stretch:normal;font-size:medium;line-height:normal;font-family:sans-serif;text-indent:0;text-align:start;text-decoration:none;text-decoration-line:none;text-decoration-style:solid;text-decoration-color:#000000;letter-spacing:normal;word-spacing:normal;text-transform:none;direction:ltr;block-progression:tb;writing-mode:lr-tb;baseline-shift:baseline;text-anchor:start;white-space:normal;clip-rule:nonzero;display:inline;overflow:visible;visibility:visible;opacity:1;isolation:auto;mix-blend-mode:normal;color-interpolation:sRGB;color-interpolation-filters:linearRGB;solid-color:#000000;solid-opacity:1;fill:#000000;fill-opacity:1;fill-rule:nonzero;stroke:none;stroke-width:10;stroke-linecap:round;stroke-linejoin:round;stroke-miterlimit:4;stroke-dasharray:none;stroke-dashoffset:0;stroke-opacity:1;color-rendering:auto;image-rendering:auto;shape-rendering:auto;text-rendering:auto;enable-background:accumulate"
       d="M 10.982422,24.054688 A 5.0005,5.0005 0 0 0 6.1132812,27.441406 C -4.2346147,56.467009 -1.1412931,82.49917 11.871094,99.714844 24.883481,116.93052 47.746677,124.5188 73.691406,117.65234 a 5.0005,5.0005 0 1 0 -2.558594,-9.66796 C 48.244542,114.04192 30.385519,107.62542 19.847656,93.683594 9.3097931,79.741769 6.025146,57.463225 15.53125,30.798828 a 5.0005,5.0005 0 0 0 -4.548828,-6.74414 z"
       id="path46-3"
       inkscape:connector-curvature="0" /><path
       style="color:#000000;font-style:normal;font-variant:normal;font-weight:normal;font-stretch:normal;font-size:medium;line-height:normal;font-family:sans-serif;text-indent:0;text-align:start;text-decoration:none;text-decoration-line:none;text-decoration-style:solid;text-decoration-color:#000000;letter-spacing:normal;word-spacing:normal;text-transform:none;direction:ltr;block-progression:tb;writing-mode:lr-tb;baseline-shift:baseline;text-anchor:start;white-space:normal;clip-rule:nonzero;display:inline;overflow:visible;visibility:visible;opacity:1;isolation:auto;mix-blend-mode:normal;color-interpolation:sRGB;color-interpolation-filters:linearRGB;solid-color:#000000;solid-opacity:1;fill:#000000;fill-opacity:1;fill-rule:nonzero;stroke:none;stroke-width:10;stroke-linecap:round;stroke-linejoin:round;stroke-miterlimit:4;stroke-dasharray:none;stroke-dashoffset:0;stroke-opacity:1;color-rendering:auto;image-rendering:auto;shape-rendering:auto;text-rendering:auto;enable-background:accumulate"
       d="m 126.41992,24.802734 a 5.0005,5.0005 0 0 0 -0.58789,0.0293 c -14.81977,0.157224 -26.590173,6.089329 -34.316405,14.976563 -7.830561,9.007239 -11.638527,20.786019 -11.675781,32.498047 -0.03725,11.712027 3.695198,23.495154 11.464844,32.511716 7.769645,9.01656 19.695572,15.02539 34.761722,15.02539 15.04756,0 27.0047,-6.00358 34.84961,-15.00391 7.8449,-9.000321 11.69892,-20.769154 11.77929,-32.482415 0.0804,-11.713261 -3.61534,-23.508396 -11.38867,-32.53125 -7.6762,-8.910111 -19.45008,-14.84845 -34.33398,-14.996094 a 5.0005,5.0005 0 0 0 -0.55274,-0.02734 z m 0,10 c 12.59838,0 21.34685,4.628449 27.31055,11.550782 5.9637,6.922332 9.03035,16.388558 8.96484,25.935546 -0.0655,9.546989 -3.26505,19.035611 -9.31836,25.980469 -6.05331,6.944859 -14.83811,11.574219 -27.31054,11.574219 -12.49486,0 -21.21706,-4.62411 -27.187504,-11.552734 -5.970448,-6.928623 -9.069433,-16.404904 -9.039062,-25.953125 0.03037,-9.548222 3.189107,-19.02885 9.220703,-25.966797 6.031593,-6.937948 14.819433,-11.56836 27.359373,-11.56836 z"
       id="path17-7"
       inkscape:connector-curvature="0" /><path
       style="color:#000000;font-style:normal;font-variant:normal;font-weight:normal;font-stretch:normal;font-size:medium;line-height:normal;font-family:sans-serif;text-indent:0;text-align:start;text-decoration:none;text-decoration-line:none;text-decoration-style:solid;text-decoration-color:#000000;letter-spacing:normal;word-spacing:normal;text-transform:none;direction:ltr;block-progression:tb;writing-mode:lr-tb;baseline-shift:baseline;text-anchor:start;white-space:normal;clip-rule:nonzero;display:inline;overflow:visible;visibility:visible;opacity:1;isolation:auto;mix-blend-mode:normal;color-interpolation:sRGB;color-interpolation-filters:linearRGB;solid-color:#000000;solid-opacity:1;fill:#000000;fill-opacity:1;fill-rule:nonzero;stroke:none;stroke-width:10;stroke-linecap:round;stroke-linejoin:round;stroke-miterlimit:4;stroke-dasharray:none;stroke-dashoffset:0;stroke-opacity:1;color-rendering:auto;image-rendering:auto;shape-rendering:auto;text-rendering:auto;enable-background:accumulate"
       d="m 178.2168,24.738281 a 5.0005,5.0005 0 0 0 -4.39453,7.082031 c 12.17919,27.617442 21.472,48.726112 29.60156,63.363282 4.06477,7.318586 7.81648,13.033996 11.75976,17.240236 3.94329,4.20624 8.37205,7.11941 13.47071,7.39648 5.09865,0.27708 9.8402,-2.23375 13.99218,-6.16797 4.15199,-3.93421 8.11431,-9.45358 12.44727,-16.701168 8.66592,-14.495176 18.71253,-35.991199 31.89844,-65.085938 a 5.0005,5.0005 0 1 0 -9.10742,-4.126953 c -13.16009,29.03776 -23.20328,50.416739 -31.37305,64.082031 -4.08489,6.832647 -7.72725,11.715458 -10.74219,14.572268 -3.01494,2.85681 -5.00379,3.52664 -6.57226,3.4414 -1.56847,-0.0852 -3.74361,-1.07645 -6.71875,-4.25 -2.97515,-3.17354 -6.45644,-8.31305 -10.3125,-15.255855 -7.71214,-13.885611 -17.01456,-34.926412 -29.19336,-62.542969 a 5.0005,5.0005 0 0 0 -4.75586,-3.046875 z"
       id="path25-5"
       inkscape:connector-curvature="0" /><path
       style="color:#000000;font-style:normal;font-variant:normal;font-weight:normal;font-stretch:normal;font-size:medium;line-height:normal;font-family:sans-serif;text-indent:0;text-align:start;text-decoration:none;text-decoration-line:none;text-decoration-style:solid;text-decoration-color:#000000;letter-spacing:normal;word-spacing:normal;text-transform:none;direction:ltr;block-progression:tb;writing-mode:lr-tb;baseline-shift:baseline;text-anchor:start;white-space:normal;clip-rule:nonzero;display:inline;overflow:visible;visibility:visible;opacity:1;isolation:auto;mix-blend-mode:normal;color-interpolation:sRGB;color-interpolation-filters:linearRGB;solid-color:#000000;solid-opacity:1;fill:#000000;fill-opacity:1;fill-rule:nonzero;stroke:none;stroke-width:10;stroke-linecap:round;stroke-linejoin:round;stroke-miterlimit:4;stroke-dasharray:none;stroke-dashoffset:0;stroke-opacity:1;color-rendering:auto;image-rendering:auto;shape-rendering:auto;text-rendering:auto;enable-background:accumulate"
       d="m 329.87305,24.869141 c -15.43918,0.805893 -27.7946,9.580227 -35,21.240234 -8.23475,13.325723 -10.36978,30.479826 -4.26953,45.121094 5.83668,14.009221 15.24359,22.053851 25.59375,25.707031 10.35015,3.65318 21.33154,3.2517 31.32812,2.14062 a 5.0005,5.0005 0 1 0 -1.10351,-9.93945 c -9.41043,1.04593 -18.91589,1.18596 -26.89649,-1.63086 -7.98059,-2.81682 -14.74609,-8.253273 -19.69141,-20.123044 -4.68175,-11.236733 -3.04413,-25.351801 3.54688,-36.017578 6.59101,-10.665778 17.50631,-17.820891 32.33008,-16.386719 14.79625,1.431509 26.27426,11.553618 27.90429,20.824219 0.81502,4.6353 -0.26916,9.17317 -4.91406,13.916015 -4.64489,4.742846 -13.17775,9.459896 -26.84765,12.554688 a 5.0005,5.0005 0 1 0 2.20898,9.751953 c 14.9041,-3.374208 25.24113,-8.630518 31.7832,-15.310547 6.54208,-6.68003 8.96075,-15.014332 7.61914,-22.644531 -2.68321,-15.2604 -18.16026,-27.244385 -36.79101,-29.046875 -2.32541,-0.224979 -4.59519,-0.271378 -6.80078,-0.15625 z"
       id="path36-5"
       inkscape:connector-curvature="0" /><path
       style="color:#000000;font-style:normal;font-variant:normal;font-weight:normal;font-stretch:normal;font-size:medium;line-height:normal;font-family:sans-serif;text-indent:0;text-align:start;text-decoration:none;text-decoration-line:none;text-decoration-style:solid;text-decoration-color:#000000;letter-spacing:normal;word-spacing:normal;text-transform:none;direction:ltr;block-progression:tb;writing-mode:lr-tb;baseline-shift:baseline;text-anchor:start;white-space:normal;clip-rule:nonzero;display:inline;overflow:visible;visibility:visible;opacity:1;isolation:auto;mix-blend-mode:normal;color-interpolation:sRGB;color-interpolation-filters:linearRGB;solid-color:#000000;solid-opacity:1;fill:#000000;fill-opacity:1;fill-rule:evenodd;stroke:none;stroke-width:10;stroke-linecap:round;stroke-linejoin:round;stroke-miterlimit:4;stroke-dasharray:none;stroke-dashoffset:0;stroke-opacity:1;color-rendering:auto;image-rendering:auto;shape-rendering:auto;text-rendering:auto;enable-background:accumulate"
       d="m 419.66016,24.732422 c -11.867,-0.242508 -24.55763,3.773788 -33.45118,13.27539 a 5.0005,5.0005 0 1 0 7.30079,6.833985 c 7.47983,-7.991235 19.57309,-11.112604 29.9375,-9.824219 5.1822,0.644193 9.84058,2.381668 13.13085,4.783203 3.29028,2.401536 5.21691,5.260965 5.74805,8.847657 1.10601,7.468634 -1.35817,10.390991 -5.17773,12.882812 -3.81957,2.491821 -9.44088,3.576979 -12.67383,3.84375 a 5.0005,5.0005 0 0 0 0.24023,9.980469 c 8.17373,0.280259 13.26456,2.862954 16.28711,6.283203 3.02255,3.420249 4.25213,7.972943 3.51758,13.357422 -0.63054,4.622115 -2.72386,7.559786 -6.19531,9.958986 -3.47145,2.3992 -8.45799,3.98946 -14.04883,4.60156 -11.18168,1.2242 -24.66344,-1.66539 -31.57812,-5.75586 a 5.0005,5.0005 0 1 0 -5.08985,8.60742 c 9.6942,5.73473 24.24495,8.56732 37.75781,7.08789 6.75644,-0.73971 13.28286,-2.60887 18.64454,-6.31445 5.36167,-3.70558 9.4199,-9.51784 10.41796,-16.833984 1.05681,-7.746773 -0.81139,-15.535864 -5.93359,-21.332031 -1.71888,-1.945044 -3.88529,-3.52297 -6.24219,-4.919922 0.11804,-0.07453 0.24185,-0.11278 0.35938,-0.189453 6.1845,-4.034665 11.19145,-12.025986 9.60742,-22.722656 -0.95876,-6.474306 -4.74905,-11.813648 -9.74609,-15.460938 -4.99705,-3.647289 -11.19809,-5.809349 -17.79102,-6.628906 -1.64823,-0.204889 -3.3262,-0.326684 -5.02148,-0.361328 z"
       id="path8163-6"
       inkscape:connector-curvature="0" /><path
       style="color:#000000;font-style:normal;font-variant:normal;font-weight:normal;font-stretch:normal;font-size:medium;line-height:normal;font-family:sans-serif;text-indent:0;text-align:start;text-decoration:none;text-decoration-line:none;text-decoration-style:solid;text-decoration-color:#000000;letter-spacing:normal;word-spacing:normal;text-transform:none;direction:ltr;block-progression:tb;writing-mode:lr-tb;baseline-shift:baseline;text-anchor:start;white-space:normal;clip-rule:nonzero;display:inline;overflow:visible;visibility:visible;opacity:1;isolation:auto;mix-blend-mode:normal;color-interpolation:sRGB;color-interpolation-filters:linearRGB;solid-color:#000000;solid-opacity:1;fill:#000000;fill-opacity:1;fill-rule:evenodd;stroke:none;stroke-width:10;stroke-linecap:round;stroke-linejoin:round;stroke-miterlimit:4;stroke-dasharray:none;stroke-dashoffset:0;stroke-opacity:1;color-rendering:auto;image-rendering:auto;shape-rendering:auto;text-rendering:auto;enable-background:accumulate"
       d="m 489.50586,25.056641 c -3.44613,-0.02202 -6.51633,0.213917 -9.14258,0.701171 -2.62625,0.487255 -4.75233,0.889908 -7.00195,2.851563 a 5.0005,5.0005 0 0 0 -1.20508,1.572266 5.0005,5.0005 0 0 0 -0.002,0.0059 c -1.37619,1.766382 -2.21564,3.659966 -2.85938,5.855469 -0.83404,2.844553 -1.44194,6.172528 -1.91992,9.917969 -0.95597,7.490881 -1.35773,16.618465 -1.29688,25.773437 0.0609,9.154972 0.58683,18.30046 1.56641,25.804687 0.48979,3.752117 1.08592,7.086627 1.85156,9.912107 0.76565,2.82548 1.39737,5.11108 3.5,7.3418 2.13468,2.26471 4.52919,3.02897 7.33594,3.75195 2.80675,0.72298 6.06953,1.14838 9.70313,1.28906 7.2672,0.28137 15.99608,-0.59924 24.60351,-3.30468 8.60744,-2.70545 17.14741,-7.26417 23.51367,-14.59961 6.36626,-7.335447 10.30906,-17.485331 9.78711,-30.099611 C 547.44184,59.804073 542.92044,50.201113 536.38477,43.203125 529.84909,36.205137 521.46696,31.73856 513.11328,28.966797 504.75961,26.195034 496.39812,25.10068 489.50586,25.056641 Z m -0.0625,10 c 5.86096,0.03745 13.33174,1.015469 20.51953,3.40039 7.18779,2.384922 14.05725,6.158583 19.11328,11.572266 5.05604,5.413683 8.4667,12.3944 8.87305,22.214844 0.43048,10.403688 -2.55961,17.611643 -7.34961,23.130859 -4.79,5.51922 -11.62951,9.31147 -18.95899,11.61523 -7.32947,2.30377 -15.09642,3.0886 -21.21874,2.85157 -3.06117,-0.11852 -5.7166,-0.49694 -7.59376,-0.98047 -1.87715,-0.48353 -2.93231,-1.32837 -2.55468,-0.92774 0.37093,0.39354 -0.54277,-0.95097 -1.125,-3.09961 -0.58224,-2.14863 -1.13641,-5.131223 -1.58789,-8.589839 -0.90296,-6.917233 -1.42386,-15.765137 -1.48243,-24.576172 -0.0586,-8.811036 0.34682,-17.622314 1.2168,-24.439453 0.43499,-3.40857 0.99625,-6.326609 1.5957,-8.371094 0.5654,-1.928315 1.30027,-2.799233 0.98438,-2.556641 0.25159,-0.08009 1.09713,-0.485446 2.3125,-0.710937 1.78993,-0.332089 4.32538,-0.551928 7.25586,-0.533203 z"
       id="path8198-6"
       inkscape:connector-curvature="0" /></g></svg>